<mxfile host="app.diagrams.net" modified="2023-11-03T14:02:14.670Z" agent="Mozilla/5.0 (X11; Linux x86_64; rv:109.0) Gecko/20100101 Firefox/119.0" etag="qJOM_4TLvx20vM_2exk3" version="22.0.0" type="device">
  <diagram name="Pagina-1" id="VxJ7IpKM2QnTvTh_py_2">
    <mxGraphModel dx="1050" dy="606" grid="1" gridSize="10" guides="1" tooltips="1" connect="1" arrows="1" fold="1" page="1" pageScale="1" pageWidth="827" pageHeight="1169" math="0" shadow="0">
      <root>
        <mxCell id="0" />
        <mxCell id="1" parent="0" />
        <mxCell id="BRH9kT0y2_Ae_BUota2q-1" value="Y" style="ellipse;whiteSpace=wrap;html=1;aspect=fixed;fontSize=24;horizontal=1;fontFamily=Verdana;" vertex="1" parent="1">
          <mxGeometry x="700" y="340" width="60" height="60" as="geometry" />
        </mxCell>
        <mxCell id="BRH9kT0y2_Ae_BUota2q-2" value="X" style="ellipse;whiteSpace=wrap;html=1;aspect=fixed;fontSize=24;fontFamily=Verdana;" vertex="1" parent="1">
          <mxGeometry x="580" y="340" width="60" height="60" as="geometry" />
        </mxCell>
        <mxCell id="BRH9kT0y2_Ae_BUota2q-3" value="Z" style="ellipse;whiteSpace=wrap;html=1;aspect=fixed;fontSize=24;fontFamily=Verdana;" vertex="1" parent="1">
          <mxGeometry x="640" y="410" width="60" height="60" as="geometry" />
        </mxCell>
        <mxCell id="BRH9kT0y2_Ae_BUota2q-5" value="" style="endArrow=classic;html=1;rounded=0;entryX=1;entryY=0;entryDx=0;entryDy=0;exitX=0;exitY=1;exitDx=0;exitDy=0;fontSize=24;fontFamily=Verdana;strokeWidth=2;strokeColor=#e01b24;" edge="1" parent="1" source="BRH9kT0y2_Ae_BUota2q-1" target="BRH9kT0y2_Ae_BUota2q-3">
          <mxGeometry width="50" height="50" relative="1" as="geometry">
            <mxPoint x="730" y="440" as="sourcePoint" />
            <mxPoint x="740" y="400" as="targetPoint" />
          </mxGeometry>
        </mxCell>
        <mxCell id="BRH9kT0y2_Ae_BUota2q-6" value="" style="endArrow=classic;html=1;rounded=0;entryX=0;entryY=0;entryDx=0;entryDy=0;exitX=1;exitY=1;exitDx=0;exitDy=0;fontSize=24;fontFamily=Verdana;strokeWidth=2;strokeColor=#e01b24;" edge="1" parent="1" source="BRH9kT0y2_Ae_BUota2q-2" target="BRH9kT0y2_Ae_BUota2q-3">
          <mxGeometry width="50" height="50" relative="1" as="geometry">
            <mxPoint x="740" y="355" as="sourcePoint" />
            <mxPoint x="708" y="412" as="targetPoint" />
          </mxGeometry>
        </mxCell>
        <mxCell id="BRH9kT0y2_Ae_BUota2q-7" value="X" style="ellipse;whiteSpace=wrap;html=1;aspect=fixed;fontSize=24;fontFamily=Verdana;" vertex="1" parent="1">
          <mxGeometry x="120" y="40" width="60" height="60" as="geometry" />
        </mxCell>
        <mxCell id="BRH9kT0y2_Ae_BUota2q-8" value="Y" style="ellipse;whiteSpace=wrap;html=1;aspect=fixed;fontSize=24;horizontal=1;fontFamily=Verdana;" vertex="1" parent="1">
          <mxGeometry x="120" y="140" width="60" height="60" as="geometry" />
        </mxCell>
        <mxCell id="BRH9kT0y2_Ae_BUota2q-9" value="" style="endArrow=classic;html=1;rounded=0;entryX=0.5;entryY=0;entryDx=0;entryDy=0;exitX=0.5;exitY=1;exitDx=0;exitDy=0;fontSize=24;fontFamily=Verdana;strokeColor=#26a269;strokeWidth=2;" edge="1" parent="1" source="BRH9kT0y2_Ae_BUota2q-7" target="BRH9kT0y2_Ae_BUota2q-8">
          <mxGeometry width="50" height="50" relative="1" as="geometry">
            <mxPoint x="211" y="541" as="sourcePoint" />
            <mxPoint x="249" y="569" as="targetPoint" />
          </mxGeometry>
        </mxCell>
        <mxCell id="BRH9kT0y2_Ae_BUota2q-10" value="X" style="ellipse;whiteSpace=wrap;html=1;aspect=fixed;fontSize=24;fontFamily=Verdana;" vertex="1" parent="1">
          <mxGeometry x="240" y="40" width="60" height="60" as="geometry" />
        </mxCell>
        <mxCell id="BRH9kT0y2_Ae_BUota2q-11" value="Z" style="ellipse;whiteSpace=wrap;html=1;aspect=fixed;fontSize=24;horizontal=1;fontFamily=Verdana;" vertex="1" parent="1">
          <mxGeometry x="240" y="140" width="60" height="60" as="geometry" />
        </mxCell>
        <mxCell id="BRH9kT0y2_Ae_BUota2q-12" value="" style="endArrow=classic;html=1;rounded=0;entryX=0.5;entryY=0;entryDx=0;entryDy=0;exitX=0.5;exitY=1;exitDx=0;exitDy=0;fontSize=24;fontFamily=Verdana;strokeColor=#26a269;strokeWidth=2;" edge="1" parent="1" source="BRH9kT0y2_Ae_BUota2q-10" target="BRH9kT0y2_Ae_BUota2q-11">
          <mxGeometry width="50" height="50" relative="1" as="geometry">
            <mxPoint x="331" y="541" as="sourcePoint" />
            <mxPoint x="369" y="569" as="targetPoint" />
          </mxGeometry>
        </mxCell>
        <mxCell id="BRH9kT0y2_Ae_BUota2q-13" value="Y" style="ellipse;whiteSpace=wrap;html=1;aspect=fixed;fontSize=24;fontFamily=Verdana;" vertex="1" parent="1">
          <mxGeometry x="240" y="240" width="60" height="60" as="geometry" />
        </mxCell>
        <mxCell id="BRH9kT0y2_Ae_BUota2q-15" value="" style="endArrow=classic;html=1;rounded=0;entryX=0.5;entryY=0;entryDx=0;entryDy=0;exitX=0.5;exitY=1;exitDx=0;exitDy=0;fontSize=24;fontFamily=Verdana;strokeColor=#26a269;strokeWidth=2;" edge="1" parent="1" source="BRH9kT0y2_Ae_BUota2q-11" target="BRH9kT0y2_Ae_BUota2q-13">
          <mxGeometry width="50" height="50" relative="1" as="geometry">
            <mxPoint x="280" y="110" as="sourcePoint" />
            <mxPoint x="280" y="150" as="targetPoint" />
          </mxGeometry>
        </mxCell>
        <mxCell id="BRH9kT0y2_Ae_BUota2q-16" value="X" style="ellipse;whiteSpace=wrap;html=1;aspect=fixed;fontSize=24;fontFamily=Verdana;" vertex="1" parent="1">
          <mxGeometry x="360" y="40" width="60" height="60" as="geometry" />
        </mxCell>
        <mxCell id="BRH9kT0y2_Ae_BUota2q-17" value="Z" style="ellipse;whiteSpace=wrap;html=1;aspect=fixed;fontSize=24;horizontal=1;fontFamily=Verdana;fillColor=#fff2cc;strokeColor=#d6b656;" vertex="1" parent="1">
          <mxGeometry x="360" y="140" width="60" height="60" as="geometry" />
        </mxCell>
        <mxCell id="BRH9kT0y2_Ae_BUota2q-18" value="" style="endArrow=classic;html=1;rounded=0;entryX=0.5;entryY=0;entryDx=0;entryDy=0;exitX=0.5;exitY=1;exitDx=0;exitDy=0;fontSize=24;fontFamily=Verdana;strokeColor=#e01b24;strokeWidth=2;" edge="1" parent="1" source="BRH9kT0y2_Ae_BUota2q-16" target="BRH9kT0y2_Ae_BUota2q-17">
          <mxGeometry width="50" height="50" relative="1" as="geometry">
            <mxPoint x="451" y="541" as="sourcePoint" />
            <mxPoint x="489" y="569" as="targetPoint" />
          </mxGeometry>
        </mxCell>
        <mxCell id="BRH9kT0y2_Ae_BUota2q-19" value="Y" style="ellipse;whiteSpace=wrap;html=1;aspect=fixed;fontSize=24;fontFamily=Verdana;" vertex="1" parent="1">
          <mxGeometry x="360" y="240" width="60" height="60" as="geometry" />
        </mxCell>
        <mxCell id="BRH9kT0y2_Ae_BUota2q-20" value="" style="endArrow=classic;html=1;rounded=0;entryX=0.5;entryY=0;entryDx=0;entryDy=0;exitX=0.5;exitY=1;exitDx=0;exitDy=0;fontSize=24;fontFamily=Verdana;strokeColor=#e01b24;strokeWidth=2;" edge="1" parent="1" source="BRH9kT0y2_Ae_BUota2q-17" target="BRH9kT0y2_Ae_BUota2q-19">
          <mxGeometry width="50" height="50" relative="1" as="geometry">
            <mxPoint x="400" y="110" as="sourcePoint" />
            <mxPoint x="400" y="150" as="targetPoint" />
          </mxGeometry>
        </mxCell>
        <mxCell id="BRH9kT0y2_Ae_BUota2q-25" value="Y" style="ellipse;whiteSpace=wrap;html=1;aspect=fixed;fontSize=24;horizontal=1;fontFamily=Verdana;" vertex="1" parent="1">
          <mxGeometry x="240" y="410" width="60" height="60" as="geometry" />
        </mxCell>
        <mxCell id="BRH9kT0y2_Ae_BUota2q-26" value="X" style="ellipse;whiteSpace=wrap;html=1;aspect=fixed;fontSize=24;fontFamily=Verdana;" vertex="1" parent="1">
          <mxGeometry x="120" y="410" width="60" height="60" as="geometry" />
        </mxCell>
        <mxCell id="BRH9kT0y2_Ae_BUota2q-27" value="Z" style="ellipse;whiteSpace=wrap;html=1;aspect=fixed;fontSize=24;fontFamily=Verdana;" vertex="1" parent="1">
          <mxGeometry x="180" y="340" width="60" height="60" as="geometry" />
        </mxCell>
        <mxCell id="BRH9kT0y2_Ae_BUota2q-28" value="" style="endArrow=none;html=1;rounded=0;entryX=1;entryY=1;entryDx=0;entryDy=0;fontSize=24;fontFamily=Verdana;endFill=0;startArrow=classic;startFill=1;strokeWidth=2;exitX=0;exitY=0;exitDx=0;exitDy=0;strokeColor=#26a269;" edge="1" parent="1" source="BRH9kT0y2_Ae_BUota2q-25" target="BRH9kT0y2_Ae_BUota2q-27">
          <mxGeometry width="50" height="50" relative="1" as="geometry">
            <mxPoint x="220" y="445" as="sourcePoint" />
            <mxPoint x="280" y="330" as="targetPoint" />
          </mxGeometry>
        </mxCell>
        <mxCell id="BRH9kT0y2_Ae_BUota2q-29" value="" style="endArrow=none;html=1;rounded=0;entryX=0;entryY=1;entryDx=0;entryDy=0;exitX=1;exitY=0;exitDx=0;exitDy=0;fontSize=24;fontFamily=Verdana;endFill=0;startArrow=classic;startFill=1;strokeWidth=2;strokeColor=#26a269;" edge="1" parent="1" source="BRH9kT0y2_Ae_BUota2q-26" target="BRH9kT0y2_Ae_BUota2q-27">
          <mxGeometry width="50" height="50" relative="1" as="geometry">
            <mxPoint x="280" y="285" as="sourcePoint" />
            <mxPoint x="248" y="342" as="targetPoint" />
          </mxGeometry>
        </mxCell>
        <mxCell id="BRH9kT0y2_Ae_BUota2q-35" value="Y" style="ellipse;whiteSpace=wrap;html=1;aspect=fixed;fontSize=24;horizontal=1;fontFamily=Verdana;" vertex="1" parent="1">
          <mxGeometry x="450" y="410" width="60" height="60" as="geometry" />
        </mxCell>
        <mxCell id="BRH9kT0y2_Ae_BUota2q-36" value="X" style="ellipse;whiteSpace=wrap;html=1;aspect=fixed;fontSize=24;fontFamily=Verdana;" vertex="1" parent="1">
          <mxGeometry x="330" y="410" width="60" height="60" as="geometry" />
        </mxCell>
        <mxCell id="BRH9kT0y2_Ae_BUota2q-37" value="Z" style="ellipse;whiteSpace=wrap;html=1;aspect=fixed;fontSize=24;fontFamily=Verdana;fillColor=#fff2cc;strokeColor=#d6b656;" vertex="1" parent="1">
          <mxGeometry x="390" y="340" width="60" height="60" as="geometry" />
        </mxCell>
        <mxCell id="BRH9kT0y2_Ae_BUota2q-38" value="" style="endArrow=none;html=1;rounded=0;entryX=1;entryY=1;entryDx=0;entryDy=0;fontSize=24;fontFamily=Verdana;endFill=0;startArrow=classic;startFill=1;strokeWidth=2;exitX=0;exitY=0;exitDx=0;exitDy=0;strokeColor=#e01b24;" edge="1" parent="1" source="BRH9kT0y2_Ae_BUota2q-35" target="BRH9kT0y2_Ae_BUota2q-37">
          <mxGeometry width="50" height="50" relative="1" as="geometry">
            <mxPoint x="420" y="435" as="sourcePoint" />
            <mxPoint x="490" y="330" as="targetPoint" />
          </mxGeometry>
        </mxCell>
        <mxCell id="BRH9kT0y2_Ae_BUota2q-39" value="" style="endArrow=none;html=1;rounded=0;entryX=0;entryY=1;entryDx=0;entryDy=0;exitX=1;exitY=0;exitDx=0;exitDy=0;fontSize=24;fontFamily=Verdana;endFill=0;startArrow=classic;startFill=1;strokeWidth=2;strokeColor=#e01b24;" edge="1" parent="1" source="BRH9kT0y2_Ae_BUota2q-36" target="BRH9kT0y2_Ae_BUota2q-37">
          <mxGeometry width="50" height="50" relative="1" as="geometry">
            <mxPoint x="490" y="285" as="sourcePoint" />
            <mxPoint x="458" y="342" as="targetPoint" />
          </mxGeometry>
        </mxCell>
        <mxCell id="BRH9kT0y2_Ae_BUota2q-40" value="Y" style="ellipse;whiteSpace=wrap;html=1;aspect=fixed;fontSize=24;horizontal=1;fontFamily=Verdana;" vertex="1" parent="1">
          <mxGeometry x="910" y="340" width="60" height="60" as="geometry" />
        </mxCell>
        <mxCell id="BRH9kT0y2_Ae_BUota2q-41" value="X" style="ellipse;whiteSpace=wrap;html=1;aspect=fixed;fontSize=24;fontFamily=Verdana;" vertex="1" parent="1">
          <mxGeometry x="790" y="340" width="60" height="60" as="geometry" />
        </mxCell>
        <mxCell id="BRH9kT0y2_Ae_BUota2q-42" value="Z" style="ellipse;whiteSpace=wrap;html=1;aspect=fixed;fontSize=24;fontFamily=Verdana;fillColor=#fff2cc;strokeColor=#d6b656;" vertex="1" parent="1">
          <mxGeometry x="850" y="410" width="60" height="60" as="geometry" />
        </mxCell>
        <mxCell id="BRH9kT0y2_Ae_BUota2q-43" value="" style="endArrow=classic;html=1;rounded=0;entryX=1;entryY=0;entryDx=0;entryDy=0;exitX=0;exitY=1;exitDx=0;exitDy=0;fontSize=24;fontFamily=Verdana;strokeWidth=2;strokeColor=#26a269;" edge="1" parent="1" source="BRH9kT0y2_Ae_BUota2q-40" target="BRH9kT0y2_Ae_BUota2q-42">
          <mxGeometry width="50" height="50" relative="1" as="geometry">
            <mxPoint x="940" y="440" as="sourcePoint" />
            <mxPoint x="950" y="400" as="targetPoint" />
          </mxGeometry>
        </mxCell>
        <mxCell id="BRH9kT0y2_Ae_BUota2q-44" value="" style="endArrow=classic;html=1;rounded=0;entryX=0;entryY=0;entryDx=0;entryDy=0;exitX=1;exitY=1;exitDx=0;exitDy=0;fontSize=24;fontFamily=Verdana;strokeWidth=2;strokeColor=#26a269;" edge="1" parent="1" source="BRH9kT0y2_Ae_BUota2q-41" target="BRH9kT0y2_Ae_BUota2q-42">
          <mxGeometry width="50" height="50" relative="1" as="geometry">
            <mxPoint x="950" y="355" as="sourcePoint" />
            <mxPoint x="918" y="412" as="targetPoint" />
          </mxGeometry>
        </mxCell>
        <mxCell id="BRH9kT0y2_Ae_BUota2q-45" value="Z" style="ellipse;whiteSpace=wrap;html=1;aspect=fixed;fontSize=24;horizontal=1;fontFamily=Verdana;fillColor=#fff2cc;strokeColor=#d6b656;" vertex="1" parent="1">
          <mxGeometry x="560" y="70" width="60" height="60" as="geometry" />
        </mxCell>
        <mxCell id="BRH9kT0y2_Ae_BUota2q-46" value="&lt;font style=&quot;font-size: 24px;&quot;&gt;Evidence&lt;/font&gt;" style="text;html=1;strokeColor=none;fillColor=none;align=left;verticalAlign=middle;whiteSpace=wrap;rounded=0;fontSize=24;fontFamily=Times New Roman;" vertex="1" parent="1">
          <mxGeometry x="630" y="85" width="250" height="30" as="geometry" />
        </mxCell>
        <mxCell id="BRH9kT0y2_Ae_BUota2q-47" value="" style="endArrow=classic;html=1;rounded=0;exitX=0.5;exitY=1;exitDx=0;exitDy=0;fontSize=24;fontFamily=Verdana;strokeColor=#e01b24;strokeWidth=2;" edge="1" parent="1">
          <mxGeometry width="50" height="50" relative="1" as="geometry">
            <mxPoint x="560" y="209" as="sourcePoint" />
            <mxPoint x="620" y="209" as="targetPoint" />
          </mxGeometry>
        </mxCell>
        <mxCell id="BRH9kT0y2_Ae_BUota2q-48" value="" style="endArrow=classic;html=1;rounded=0;fontSize=24;fontFamily=Verdana;strokeColor=#26a269;strokeWidth=2;" edge="1" parent="1">
          <mxGeometry width="50" height="50" relative="1" as="geometry">
            <mxPoint x="560" y="160" as="sourcePoint" />
            <mxPoint x="620" y="160" as="targetPoint" />
          </mxGeometry>
        </mxCell>
        <mxCell id="BRH9kT0y2_Ae_BUota2q-51" value="&lt;font style=&quot;font-size: 24px;&quot;&gt;Active trail&lt;br style=&quot;font-size: 24px;&quot;&gt;&lt;/font&gt;" style="text;html=1;strokeColor=none;fillColor=none;align=left;verticalAlign=middle;whiteSpace=wrap;rounded=0;fontSize=24;fontFamily=Times New Roman;" vertex="1" parent="1">
          <mxGeometry x="630" y="140" width="250" height="40" as="geometry" />
        </mxCell>
        <mxCell id="BRH9kT0y2_Ae_BUota2q-52" value="Non-&lt;font style=&quot;font-size: 24px;&quot;&gt;active trail&lt;br style=&quot;font-size: 24px;&quot;&gt;&lt;/font&gt;" style="text;html=1;strokeColor=none;fillColor=none;align=left;verticalAlign=middle;whiteSpace=wrap;rounded=0;fontSize=24;fontFamily=Times New Roman;" vertex="1" parent="1">
          <mxGeometry x="630" y="190" width="250" height="40" as="geometry" />
        </mxCell>
      </root>
    </mxGraphModel>
  </diagram>
</mxfile>
